<svg width="249" height="28" viewBox="0 0 249 28" fill="none" xmlns="http://www.w3.org/2000/svg">
<path d="M0.656 1.084H6.524L12.14 17.86L17.864 1.084H23.624V26.5H19.052V9.328L13.328 26.5H10.952L5.192 9.328V26.5H0.656V1.084ZM39.7329 21.424H31.4529L30.1929 26.5H25.2969L31.9209 1.084H39.2649L45.8889 26.5H40.9929L39.7329 21.424ZM38.7969 17.572L35.6289 4.72H35.5569L32.3889 17.572H38.7969ZM47.6599 1.084H52.3759L61.2319 17.896V1.084H65.8759V26.5H61.1599L52.3039 9.544V26.5H47.6599V1.084ZM69.1755 1.084H73.9635V26.5H69.1755V1.084ZM84.8935 27.04C82.8535 27.04 81.1735 26.68 79.8535 25.96C78.5575 25.24 77.6215 24.256 77.0455 23.008C76.7815 22.456 76.6015 21.868 76.5055 21.244C76.4095 20.596 76.3615 19.72 76.3615 18.616H81.6175C81.6175 19.408 81.6415 20.008 81.6895 20.416C81.7375 20.8 81.8335 21.148 81.9775 21.46C82.4575 22.588 83.4895 23.152 85.0735 23.152C85.8415 23.152 86.4895 23.02 87.0175 22.756C87.5455 22.468 87.9175 22.084 88.1335 21.604C88.2535 21.364 88.3255 21.124 88.3495 20.884C88.3975 20.62 88.4215 20.272 88.4215 19.84C88.4215 19.408 88.3975 19.06 88.3495 18.796C88.3015 18.508 88.2175 18.256 88.0975 18.04C87.9055 17.584 87.5935 17.2 87.1615 16.888C86.7295 16.576 86.2375 16.312 85.6855 16.096C85.1575 15.88 84.4375 15.628 83.5255 15.34L82.6615 15.052C81.3175 14.548 80.2015 13.996 79.3135 13.396C78.4255 12.796 77.7775 12.04 77.3695 11.128C77.1775 10.672 77.0335 10.192 76.9375 9.688C76.8655 9.16 76.8295 8.524 76.8295 7.78C76.8295 7.036 76.8775 6.412 76.9735 5.908C77.0695 5.404 77.2255 4.9 77.4415 4.396C77.9935 3.196 78.9055 2.26 80.1775 1.588C81.4495 0.891999 82.9975 0.543999 84.8215 0.543999C86.5975 0.543999 88.0975 0.868 89.3215 1.516C90.5455 2.164 91.4335 3.112 91.9855 4.36C92.2255 4.912 92.3935 5.5 92.4895 6.124C92.5855 6.724 92.6335 7.552 92.6335 8.608H87.7015C87.7015 7.84 87.6775 7.264 87.6295 6.88C87.5815 6.496 87.4975 6.148 87.3775 5.836C86.8975 4.828 85.9855 4.324 84.6415 4.324C83.9455 4.324 83.3575 4.456 82.8775 4.72C82.3975 4.984 82.0615 5.344 81.8695 5.8C81.7975 5.992 81.7495 6.208 81.7255 6.448C81.7015 6.664 81.6895 6.952 81.6895 7.312C81.6895 7.648 81.7015 7.948 81.7255 8.212C81.7495 8.476 81.8095 8.716 81.9055 8.932C82.0735 9.292 82.3375 9.616 82.6975 9.904C83.0815 10.168 83.5015 10.396 83.9575 10.588C84.4375 10.756 85.1215 10.984 86.0095 11.272L87.1255 11.632C88.7095 12.16 89.9695 12.724 90.9055 13.324C91.8655 13.924 92.5735 14.716 93.0295 15.7C93.2455 16.156 93.3895 16.66 93.4615 17.212C93.5575 17.74 93.6055 18.436 93.6055 19.3C93.6055 20.14 93.5575 20.848 93.4615 21.424C93.3655 21.976 93.1975 22.492 92.9575 22.972C92.3815 24.292 91.3975 25.3 90.0055 25.996C88.6135 26.692 86.9095 27.04 84.8935 27.04ZM96.0349 1.084H100.823V11.344H108.599V1.084H113.423V26.5H108.599V15.556H100.823V26.5H96.0349V1.084ZM122.297 1.084H135.473V5.26H127.085V11.344H135.365V15.448H127.085V22.324H135.473V26.5H122.297V1.084ZM144.056 12.928L137.324 1.084H142.76L147.08 9.364L151.436 1.084H156.8L150.104 13.036L157.664 26.5H152.264L147.08 16.744L141.932 26.5H136.424L144.056 12.928ZM159.246 1.084H167.778C171.21 1.084 173.394 2.164 174.33 4.324C174.57 4.828 174.738 5.392 174.834 6.016C174.93 6.616 174.978 7.408 174.978 8.392C174.978 9.328 174.93 10.108 174.834 10.732C174.738 11.332 174.57 11.884 174.33 12.388C173.37 14.572 171.186 15.664 167.778 15.664H164.034V26.5H159.246V1.084ZM166.41 11.848C167.298 11.848 168.018 11.74 168.57 11.524C169.122 11.308 169.518 10.948 169.758 10.444C169.854 10.18 169.926 9.904 169.974 9.616C170.022 9.328 170.046 8.92 170.046 8.392C170.046 7.864 170.022 7.456 169.974 7.168C169.926 6.88 169.854 6.604 169.758 6.34C169.518 5.812 169.122 5.44 168.57 5.224C168.042 5.008 167.322 4.9 166.41 4.9H164.034V11.848H166.41ZM186.539 27.04C184.667 27.04 183.047 26.692 181.679 25.996C180.335 25.276 179.255 24.244 178.439 22.9C177.791 21.916 177.311 20.704 176.999 19.264C176.687 17.824 176.531 16 176.531 13.792C176.531 11.872 176.615 10.312 176.783 9.112C176.975 7.912 177.287 6.832 177.719 5.872C178.487 4.168 179.603 2.86 181.067 1.948C182.555 1.012 184.379 0.543999 186.539 0.543999C188.699 0.543999 190.523 1.012 192.011 1.948C193.499 2.86 194.627 4.168 195.395 5.872C195.827 6.832 196.127 7.912 196.295 9.112C196.487 10.312 196.583 11.872 196.583 13.792C196.583 15.712 196.487 17.272 196.295 18.472C196.127 19.672 195.827 20.752 195.395 21.712C194.627 23.416 193.499 24.736 192.011 25.672C190.523 26.584 188.699 27.04 186.539 27.04ZM186.539 22.612C188.603 22.612 190.031 21.724 190.823 19.948C191.087 19.3 191.267 18.556 191.363 17.716C191.483 16.852 191.543 15.544 191.543 13.792C191.543 12.04 191.483 10.744 191.363 9.904C191.267 9.04 191.087 8.284 190.823 7.636C190.031 5.86 188.603 4.972 186.539 4.972C184.499 4.972 183.083 5.86 182.291 7.636C182.003 8.284 181.799 9.028 181.679 9.868C181.583 10.708 181.535 12.016 181.535 13.792C181.535 15.52 181.583 16.816 181.679 17.68C181.799 18.544 182.003 19.3 182.291 19.948C183.083 21.724 184.499 22.612 186.539 22.612ZM205.767 15.448H204.147V26.5H199.359V1.084H208.035C209.787 1.084 211.203 1.36 212.283 1.912C213.387 2.44 214.191 3.244 214.695 4.324C214.911 4.804 215.067 5.344 215.163 5.944C215.259 6.544 215.307 7.288 215.307 8.176C215.307 9.088 215.259 9.844 215.163 10.444C215.067 11.044 214.911 11.584 214.695 12.064C213.927 13.792 212.583 14.848 210.663 15.232L216.747 26.5H211.563L205.767 15.448ZM204.147 11.812H206.667C208.491 11.812 209.619 11.332 210.051 10.372C210.171 10.132 210.255 9.868 210.303 9.58C210.351 9.268 210.375 8.836 210.375 8.284C210.375 7.756 210.351 7.36 210.303 7.096C210.279 6.808 210.207 6.556 210.087 6.34C209.847 5.836 209.439 5.476 208.863 5.26C208.311 5.044 207.579 4.936 206.667 4.936H204.147V11.812ZM221.019 5.26H216.411V1.084H230.415V5.26H225.807V26.5H221.019V5.26ZM239.686 27.04C237.646 27.04 235.966 26.68 234.646 25.96C233.35 25.24 232.414 24.256 231.838 23.008C231.574 22.456 231.394 21.868 231.298 21.244C231.202 20.596 231.154 19.72 231.154 18.616H236.41C236.41 19.408 236.434 20.008 236.482 20.416C236.53 20.8 236.626 21.148 236.77 21.46C237.25 22.588 238.282 23.152 239.866 23.152C240.634 23.152 241.282 23.02 241.81 22.756C242.338 22.468 242.71 22.084 242.926 21.604C243.046 21.364 243.118 21.124 243.142 20.884C243.19 20.62 243.214 20.272 243.214 19.84C243.214 19.408 243.19 19.06 243.142 18.796C243.094 18.508 243.01 18.256 242.89 18.04C242.698 17.584 242.386 17.2 241.954 16.888C241.522 16.576 241.03 16.312 240.478 16.096C239.95 15.88 239.23 15.628 238.318 15.34L237.454 15.052C236.11 14.548 234.994 13.996 234.106 13.396C233.218 12.796 232.57 12.04 232.162 11.128C231.97 10.672 231.826 10.192 231.73 9.688C231.658 9.16 231.622 8.524 231.622 7.78C231.622 7.036 231.67 6.412 231.766 5.908C231.862 5.404 232.018 4.9 232.234 4.396C232.786 3.196 233.698 2.26 234.97 1.588C236.242 0.891999 237.79 0.543999 239.614 0.543999C241.39 0.543999 242.89 0.868 244.114 1.516C245.338 2.164 246.226 3.112 246.778 4.36C247.018 4.912 247.186 5.5 247.282 6.124C247.378 6.724 247.426 7.552 247.426 8.608H242.494C242.494 7.84 242.47 7.264 242.422 6.88C242.374 6.496 242.29 6.148 242.17 5.836C241.69 4.828 240.778 4.324 239.434 4.324C238.738 4.324 238.15 4.456 237.67 4.72C237.19 4.984 236.854 5.344 236.662 5.8C236.59 5.992 236.542 6.208 236.518 6.448C236.494 6.664 236.482 6.952 236.482 7.312C236.482 7.648 236.494 7.948 236.518 8.212C236.542 8.476 236.602 8.716 236.698 8.932C236.866 9.292 237.13 9.616 237.49 9.904C237.874 10.168 238.294 10.396 238.75 10.588C239.23 10.756 239.914 10.984 240.802 11.272L241.918 11.632C243.502 12.16 244.762 12.724 245.698 13.324C246.658 13.924 247.366 14.716 247.822 15.7C248.038 16.156 248.182 16.66 248.254 17.212C248.35 17.74 248.398 18.436 248.398 19.3C248.398 20.14 248.35 20.848 248.254 21.424C248.158 21.976 247.99 22.492 247.75 22.972C247.174 24.292 246.19 25.3 244.798 25.996C243.406 26.692 241.702 27.04 239.686 27.04Z" fill="white"/>
</svg>
